<?xml version="1.0" encoding="UTF-8"?>
<svg id="Layer_2" data-name="Layer 2" xmlns="http://www.w3.org/2000/svg" xmlns:xlink="http://www.w3.org/1999/xlink" viewBox="0 0 193.84 41.65">
  <g id="Layer_1-2" data-name="Layer 1">
    <g>
      <image width="1212" height="1080" transform="scale(.04)" xlink:href="C:\Users\TH007\Downloads\logo (1).png"/>
      <g>
        <g>
          <path d="m54.43,19.36c-.73,0-1.27-.22-1.64-.67-.37-.45-.55-1.05-.55-1.81,0-.55.1-1.04.3-1.45.2-.41.49-.73.89-.96.39-.23.88-.34,1.47-.34.67,0,1.2.15,1.58.44s.65.69.78,1.19l.5,1.7c.04.15.11.26.19.33.09.07.19.1.3.1.14,0,.25-.04.32-.13.07-.08.11-.21.11-.37v-3.62c0-.45-.12-.81-.35-1.1-.23-.28-.56-.49-.96-.63-.41-.14-.87-.21-1.41-.21s-1.06.06-1.65.18c-.59.12-1.11.28-1.58.48v-1.58c.29-.13.63-.24,1.02-.34.39-.1.81-.18,1.26-.24s.9-.09,1.34-.09c.82,0,1.56.12,2.21.35.65.23,1.16.59,1.54,1.07.38.48.57,1.1.57,1.87v3.71c0,.7-.21,1.23-.64,1.58-.43.35-.99.53-1.68.53-.6,0-1.06-.13-1.4-.39-.34-.26-.58-.64-.73-1.14l-.43-1.41c-.07-.23-.19-.42-.34-.54-.16-.13-.35-.19-.58-.19-.28,0-.5.09-.66.28-.17.19-.25.48-.25.87,0,.35.07.62.2.79s.34.26.62.26c.09,0,.17,0,.26-.02.08-.02.17-.03.24-.06l.32,1.34c-.14.05-.31.1-.5.14s-.41.06-.65.06Z"/>
          <path d="m57.5,9.01c-.59,0-1.02-.13-1.3-.38-.28-.26-.42-.61-.42-1.06,0-.2.03-.42.08-.64.05-.22.12-.41.21-.56h1.55c-.04.1-.08.19-.1.3s-.04.21-.04.31c0,.17.05.32.16.46.11.13.27.2.5.2h4.18v1.38h-4.82Z"/>
          <path d="m65.9,19.36c-.81,0-1.47-.19-1.97-.56s-.86-.89-1.09-1.54c-.22-.66-.34-1.41-.34-2.25,0-1.14.18-2.06.54-2.76.36-.7.86-1.21,1.5-1.53.64-.32,1.39-.48,2.24-.48,1.23,0,2.19.3,2.89.89.7.59,1.05,1.45,1.05,2.57v5.5h-2.03v-5.52c0-.58-.15-1.03-.46-1.35s-.79-.49-1.46-.49c-.49,0-.9.1-1.24.3-.34.2-.59.53-.75.99-.17.46-.25,1.07-.25,1.82,0,.64.06,1.17.19,1.58.13.42.32.73.57.94.25.21.57.31.97.31.13,0,.26-.01.39-.03s.26-.05.38-.1l.26,1.46c-.21.09-.44.15-.66.18-.23.04-.47.06-.73.06Z"/>
          <path d="m76.12,19.36c-.74,0-1.39-.11-1.95-.33-.57-.22-1.01-.54-1.33-.95-.32-.42-.48-.91-.48-1.49,0-.26.03-.49.1-.7.06-.21.15-.4.26-.58l1.63.53c-.05.09-.09.18-.12.29-.03.11-.04.22-.04.35,0,.38.16.7.47.94s.76.36,1.34.36c.71,0,1.27-.23,1.66-.68.39-.45.59-1.2.59-2.25,0-.76-.11-1.35-.32-1.79-.21-.44-.52-.75-.9-.94-.39-.19-.86-.28-1.4-.28-.48,0-.96.06-1.44.17s-.97.28-1.46.5v-1.62c.43-.19.91-.35,1.46-.47.55-.12,1.14-.18,1.77-.18.66,0,1.26.08,1.78.25.53.17.98.42,1.36.78.38.35.67.82.87,1.39.2.58.3,1.28.3,2.11,0,1.11-.18,2-.53,2.67-.35.67-.84,1.16-1.46,1.46-.62.3-1.35.46-2.17.46Z"/>
          <path d="m74.92,9.17c-.44,0-.85-.07-1.22-.2s-.69-.33-.92-.59-.35-.59-.35-.98c0-.46.16-.85.49-1.17.33-.32.77-.57,1.32-.74.55-.17,1.17-.26,1.85-.26s1.32.09,1.87.26c.55.17.99.42,1.32.74.32.32.49.71.49,1.17,0,.39-.12.73-.35.99-.23.27-.54.46-.93.59-.38.13-.79.19-1.22.19l-.26-.94c.07,0,.18-.01.3-.04.13-.03.26-.07.38-.13.13-.06.24-.14.33-.24s.14-.23.14-.39c0-.3-.18-.54-.54-.71s-.87-.26-1.54-.26-1.18.09-1.54.26-.53.41-.53.71c0,.16.04.29.13.39s.19.18.33.24c.13.06.26.1.39.13.13.03.22.04.29.04l-.24.94Z"/>
          <path d="m84.14,19.36c-.76,0-1.32-.23-1.68-.69-.36-.46-.54-1.02-.54-1.7,0-.48.09-.91.27-1.28.18-.37.46-.67.85-.88s.88-.32,1.49-.32c.67,0,1.22.13,1.64.4.42.27.7.65.84,1.15l.42,1.41c.05.15.12.26.22.33.09.07.19.1.31.1.14,0,.24-.04.31-.13.07-.08.1-.21.1-.37v-3.6c0-.55-.13-1-.38-1.34-.26-.34-.61-.59-1.06-.75-.45-.16-.96-.24-1.54-.24-.49,0-.89.05-1.2.16s-.46.27-.46.48c0,.14.07.25.22.34s.34.16.58.2c.24.04.51.06.78.06.76,0,1.39-.12,1.9-.36.51-.24.89-.55,1.14-.92.25-.37.38-.76.38-1.17v-.13h1.78v.14c0,.66-.22,1.27-.66,1.82s-1.05.99-1.83,1.31c-.78.33-1.66.49-2.66.49-.65,0-1.22-.07-1.71-.21s-.87-.35-1.14-.62c-.27-.28-.41-.61-.41-1.01,0-.52.27-.95.82-1.3.55-.34,1.42-.51,2.6-.51,1.1,0,2.01.15,2.73.45.72.3,1.26.71,1.61,1.22.35.52.53,1.11.53,1.78v3.55c0,.7-.2,1.23-.61,1.58-.41.35-.96.53-1.66.53-.58,0-1.04-.12-1.4-.35-.36-.23-.61-.57-.74-.99l-.43-1.41c-.06-.23-.18-.41-.36-.54-.18-.12-.39-.18-.65-.18-.29,0-.51.08-.67.24-.16.16-.24.42-.24.78,0,.31.07.55.2.72.13.17.34.26.63.26.07,0,.15,0,.23-.02s.16-.03.25-.06l.32,1.34c-.14.05-.3.1-.5.14-.19.04-.39.06-.59.06Z"/>
          <path d="m93.88,19.2v-6.48c0-.33-.09-.57-.26-.7s-.41-.21-.72-.21c-.21,0-.42.02-.61.07-.19.05-.36.1-.51.17l-.26-1.44c.25-.11.54-.19.9-.26.35-.07.71-.1,1.09-.1.77,0,1.36.17,1.78.52.42.35.63.89.63,1.64v6.8h-2.05Z"/>
          <path d="m100.92,19.36c-.97,0-1.69-.26-2.16-.77-.47-.51-.7-1.2-.7-2.06v-6.13h1.98v6.3c0,.34.08.6.23.78.15.18.39.27.7.27.61,0,.91-.35.91-1.06v-4.11c0-.3-.05-.57-.15-.8-.1-.23-.27-.45-.5-.64l1.38-.91c.19.1.36.23.52.42.15.18.28.38.38.61h.05c.23-.31.52-.56.87-.74.35-.19.74-.28,1.18-.28s.77.09,1.06.26c.29.18.51.43.66.77.15.34.22.75.22,1.26v6.67h-1.97v-6.35c0-.33-.07-.58-.22-.75-.15-.17-.37-.26-.67-.26-.21,0-.39.05-.54.14-.14.1-.25.22-.31.38-.06.15-.1.34-.1.55v3.62c0,.86-.23,1.55-.68,2.06s-1.16.77-2.12.77Z"/>
          <path d="m110.93,13.84c-.65,0-1.12-.16-1.4-.47s-.42-.66-.42-1.05c0-.12.01-.25.03-.39.02-.14.05-.29.09-.43.04-.14.08-.26.14-.36h1.55c-.04.07-.08.17-.1.27-.03.11-.04.22-.04.34,0,.15.04.27.13.38.09.1.22.15.42.15h2.32v1.57h-2.7Zm0,4.75c-.65,0-1.12-.15-1.4-.46s-.42-.66-.42-1.04c0-.12.01-.25.03-.39.02-.14.05-.29.09-.44s.08-.27.14-.37h1.55c-.04.09-.08.18-.1.29-.03.11-.04.22-.04.34,0,.15.04.27.13.37.09.1.22.14.42.14h2.32v1.57h-2.7Z"/>
          <path d="m116.24,19.36c-.21,0-.46-.03-.74-.08-.28-.05-.54-.13-.78-.24l.29-1.36c.1.03.19.06.28.08s.18.03.28.03c.16,0,.29-.05.39-.14.1-.09.15-.24.15-.44v-3.52c0-.59-.09-1.06-.26-1.41-.17-.35-.41-.66-.7-.93l1.36-1.12c.18.13.37.31.56.56s.33.48.42.7h.05c.23-.3.49-.54.78-.72.28-.18.59-.32.93-.41.34-.09.69-.14,1.05-.14.67,0,1.23.13,1.67.38.44.26.78.62,1,1.1.22.47.34,1.05.34,1.72v5.76h-2.03v-5.57c0-.38-.05-.71-.15-.97s-.26-.46-.47-.61c-.21-.14-.5-.22-.85-.22-.2,0-.4.03-.59.09-.19.06-.37.15-.53.27-.16.12-.29.29-.38.51-.09.22-.14.49-.14.81v3.78c0,.66-.17,1.17-.5,1.53-.34.36-.81.54-1.42.54Z"/>
          <path d="m118.23,9.17c-.44,0-.85-.07-1.22-.2s-.69-.33-.92-.59-.35-.59-.35-.98c0-.46.16-.85.49-1.17.33-.32.77-.57,1.32-.74.55-.17,1.17-.26,1.85-.26s1.32.09,1.87.26c.55.17.99.42,1.32.74.32.32.49.71.49,1.17,0,.39-.12.73-.35.99-.23.27-.54.46-.93.59-.38.13-.79.19-1.22.19l-.26-.94c.07,0,.18-.01.3-.04.13-.03.26-.07.38-.13.13-.06.24-.14.33-.24s.14-.23.14-.39c0-.3-.18-.54-.54-.71s-.87-.26-1.54-.26-1.18.09-1.54.26-.53.41-.53.71c0,.16.04.29.13.39s.19.18.33.24c.13.06.26.1.39.13.13.03.22.04.29.04l-.24.94Z"/>
          <path d="m128.53,19.36c-.81,0-1.47-.19-1.97-.56s-.86-.89-1.09-1.54c-.22-.66-.34-1.41-.34-2.25,0-1.14.18-2.06.54-2.76.36-.7.86-1.21,1.5-1.53.64-.32,1.39-.48,2.24-.48,1.23,0,2.19.3,2.89.89.7.59,1.05,1.45,1.05,2.57v5.5h-2.03v-5.52c0-.58-.15-1.03-.46-1.35s-.79-.49-1.46-.49c-.49,0-.9.1-1.24.3-.34.2-.59.53-.75.99-.17.46-.25,1.07-.25,1.82,0,.64.06,1.17.19,1.58.13.42.32.73.57.94.25.21.57.31.97.31.13,0,.26-.01.39-.03s.26-.05.38-.1l.26,1.46c-.21.09-.44.15-.66.18-.23.04-.47.06-.73.06Z"/>
          <path d="m138.18,19.36c-.58,0-1.06-.15-1.44-.44-.38-.29-.57-.8-.57-1.53v-6.78c0-.63.07-1.18.2-1.65.13-.47.31-.86.54-1.18s.46-.55.72-.69l-.02-.08h-3.46l.5-1.42h5.1v1.63c-.5.2-.89.54-1.15,1.02-.27.48-.4,1.16-.4,2.05v6.96c0,.2.05.35.14.44s.24.14.46.14c.1,0,.19,0,.3-.02.1-.02.2-.04.3-.07l.29,1.3c-.27.12-.52.2-.78.26-.25.05-.49.08-.71.08Z"/>
          <path d="m143.54,19.36c-.75,0-1.35-.23-1.81-.7-.46-.47-.69-1.18-.69-2.13v-6.13h1.97v6.27c0,.36.08.63.24.82.16.18.39.27.69.27.32,0,.56-.09.73-.28s.25-.47.25-.84v-6.24h1.73v6.24c0,.37.08.65.25.84s.41.28.73.28c.3,0,.53-.09.69-.27.16-.18.24-.45.24-.82V7.78h1.97v8.75c0,.95-.23,1.66-.68,2.13-.45.47-1.06.7-1.82.7-.54,0-1-.11-1.38-.33-.37-.22-.65-.48-.82-.78h-.1c-.17.3-.44.56-.82.78-.37.22-.83.33-1.38.33Z"/>
          <path d="m155.2,19.36c-.75,0-1.35-.23-1.81-.7-.46-.47-.69-1.18-.69-2.13v-6.13h1.97v6.27c0,.36.08.63.24.82.16.18.39.27.69.27.32,0,.56-.09.73-.28s.25-.47.25-.84v-6.24h1.73v6.24c0,.37.08.65.25.84s.41.28.73.28c.3,0,.53-.09.69-.27.16-.18.24-.45.24-.82V7.78h1.97v8.75c0,.95-.23,1.66-.68,2.13-.45.47-1.06.7-1.82.7-.54,0-1-.11-1.38-.33-.37-.22-.65-.48-.82-.78h-.1c-.17.3-.44.56-.82.78-.37.22-.83.33-1.38.33Z"/>
          <path d="m154.93,9.01v-.74c.22-.04.43-.11.62-.19.19-.09.34-.2.45-.34.11-.14.17-.31.17-.5,0-.17-.05-.3-.14-.4-.1-.1-.24-.14-.42-.14-.1,0-.19.01-.27.03-.09.02-.17.05-.26.1l-.29-.91c.16-.11.37-.19.62-.26.25-.07.52-.1.81-.1.51,0,.9.11,1.15.34s.38.53.38.91c0,.18-.03.35-.08.5-.05.15-.13.27-.24.37h2.02v1.36h-4.51Z"/>
          <path d="m165.69,19.2v-6.48c0-.33-.09-.57-.26-.7s-.41-.21-.72-.21c-.21,0-.42.02-.61.07-.19.05-.36.1-.51.17l-.26-1.44c.25-.11.54-.19.9-.26.35-.07.71-.1,1.09-.1.77,0,1.36.17,1.78.52.42.35.63.89.63,1.64v6.8h-2.05Z"/>
          <path d="m171.69,19.36c-.72,0-1.27-.22-1.64-.67s-.55-1.05-.55-1.81c0-.55.1-1.04.3-1.45.2-.41.49-.73.89-.96.39-.23.89-.34,1.47-.34.67,0,1.2.15,1.58.44.38.29.64.69.78,1.19l.5,1.7c.04.15.11.26.19.33.08.07.19.1.3.1.14,0,.25-.04.32-.13.07-.08.11-.21.11-.37v-3.62c0-.45-.12-.81-.35-1.1-.23-.28-.55-.49-.96-.63-.41-.14-.87-.21-1.41-.21s-1.06.06-1.65.18-1.11.28-1.58.48v-1.58c.29-.13.63-.24,1.02-.34.39-.1.81-.18,1.26-.24s.9-.09,1.34-.09c.82,0,1.56.12,2.21.35.65.23,1.17.59,1.54,1.07.38.48.57,1.1.57,1.87v3.71c0,.7-.21,1.23-.64,1.58-.43.35-.99.53-1.68.53-.6,0-1.06-.13-1.4-.39-.34-.26-.58-.64-.73-1.14l-.43-1.41c-.07-.23-.19-.42-.34-.54-.16-.13-.35-.19-.58-.19-.28,0-.5.09-.66.28-.17.19-.25.48-.25.87,0,.35.07.62.2.79.13.18.34.26.62.26.09,0,.17,0,.26-.02s.16-.03.24-.06l.32,1.34c-.14.05-.31.1-.5.14-.2.04-.41.06-.65.06Z"/>
          <path d="m181.42,19.2v-6.48c0-.33-.09-.57-.26-.7s-.41-.21-.72-.21c-.21,0-.42.02-.61.07-.19.05-.36.1-.51.17l-.26-1.44c.25-.11.54-.19.9-.26.35-.07.71-.1,1.09-.1.77,0,1.36.17,1.78.52.42.35.63.89.63,1.64v6.8h-2.05Z"/>
          <path d="m188.86,19.36c-.74,0-1.39-.11-1.95-.33-.57-.22-1.01-.54-1.33-.95-.32-.42-.48-.91-.48-1.49,0-.26.03-.49.1-.7.06-.21.15-.4.26-.58l1.63.53c-.05.09-.09.18-.12.29-.03.11-.04.22-.04.35,0,.38.16.7.47.94s.76.36,1.34.36c.71,0,1.27-.23,1.66-.68.39-.45.59-1.2.59-2.25,0-.76-.11-1.35-.32-1.79-.21-.44-.52-.75-.9-.94-.39-.19-.86-.28-1.4-.28-.48,0-.96.06-1.44.17s-.97.28-1.46.5v-1.62c.43-.19.91-.35,1.46-.47.55-.12,1.14-.18,1.77-.18.66,0,1.26.08,1.78.25.53.17.98.42,1.36.78.38.35.67.82.87,1.39.2.58.3,1.28.3,2.11,0,1.11-.18,2-.53,2.67-.35.67-.84,1.16-1.46,1.46-.62.3-1.35.46-2.17.46Z"/>
        </g>
        <g>
          <path d="m52.58,36.26v-9.16h6.62v1.08h-5.41v2.81h5.07v1.07h-5.07v3.12h5.62v1.08h-6.84Z"/>
          <path d="m61.04,36.26v-9.16h1.21v8.08h4.51v1.08h-5.72Z"/>
          <path d="m68.23,36.26v-9.16h6.62v1.08h-5.41v2.81h5.07v1.07h-5.07v3.12h5.62v1.08h-6.84Z"/>
          <path d="m83.28,33.05l1.21.31c-.25,1-.71,1.75-1.37,2.28s-1.47.78-2.42.78-1.79-.2-2.41-.6-1.09-.98-1.41-1.75-.48-1.58-.48-2.46c0-.95.18-1.79.55-2.5s.88-1.25,1.56-1.62,1.41-.55,2.22-.55c.92,0,1.69.23,2.31.7s1.06,1.12,1.31,1.97l-1.19.28c-.21-.67-.52-1.15-.92-1.46s-.91-.46-1.52-.46c-.7,0-1.29.17-1.77.51s-.81.79-1,1.36-.29,1.16-.29,1.76c0,.78.11,1.46.34,2.04s.58,1.02,1.06,1.3,1,.43,1.56.43c.68,0,1.25-.2,1.72-.59s.79-.97.96-1.74Z"/>
          <path d="m88.32,36.26v-8.08h-3.02v-1.08h7.26v1.08h-3.03v8.08h-1.21Z"/>
          <path d="m93.82,36.26v-9.16h4.06c.82,0,1.44.08,1.86.25.42.16.76.46,1.02.87s.38.88.38,1.38c0,.65-.21,1.2-.63,1.64s-1.07.73-1.95.85c.32.15.56.31.73.46.35.32.69.73,1.01,1.22l1.59,2.49h-1.52l-1.21-1.91c-.35-.55-.65-.97-.87-1.26s-.43-.5-.62-.61-.37-.2-.55-.24c-.14-.03-.36-.04-.67-.04h-1.41v4.07h-1.21Zm1.21-5.12h2.61c.55,0,.99-.06,1.3-.17s.55-.3.71-.55.24-.53.24-.82c0-.43-.16-.79-.47-1.07-.31-.28-.81-.42-1.49-.42h-2.9v3.03Z"/>
          <path d="m103.25,36.26v-9.16h1.21v9.16h-1.21Z"/>
          <path d="m113.14,33.05l1.21.31c-.25,1-.71,1.75-1.37,2.28s-1.47.78-2.42.78-1.79-.2-2.41-.6-1.09-.98-1.41-1.75-.48-1.58-.48-2.46c0-.95.18-1.79.55-2.5s.88-1.25,1.56-1.62,1.41-.55,2.22-.55c.92,0,1.69.23,2.31.7s1.06,1.12,1.31,1.97l-1.19.28c-.21-.67-.52-1.15-.92-1.46s-.91-.46-1.52-.46c-.7,0-1.29.17-1.77.51s-.81.79-1,1.36-.29,1.16-.29,1.76c0,.78.11,1.46.34,2.04s.58,1.02,1.06,1.3,1,.43,1.56.43c.68,0,1.25-.2,1.72-.59s.79-.97.96-1.74Z"/>
          <path d="m116.05,36.26v-9.16h1.21v9.16h-1.21Z"/>
          <path d="m121.73,36.26v-8.08h-3.02v-1.08h7.26v1.08h-3.03v8.08h-1.21Z"/>
          <path d="m127.24,36.26v-9.16h6.62v1.08h-5.41v2.81h5.07v1.07h-5.07v3.12h5.62v1.08h-6.84Z"/>
          <path d="m139.31,36.26v-9.16h3.16c.71,0,1.26.04,1.63.13.52.12.97.34,1.34.66.48.41.84.93,1.08,1.57s.36,1.36.36,2.18c0,.7-.08,1.31-.24,1.85s-.37.98-.62,1.33-.53.63-.83.83-.67.36-1.09.46-.92.16-1.47.16h-3.31Zm1.21-1.08h1.96c.6,0,1.08-.06,1.42-.17s.62-.27.82-.47c.29-.29.51-.67.67-1.16s.24-1.07.24-1.77c0-.96-.16-1.69-.47-2.21s-.7-.86-1.15-1.03c-.32-.12-.85-.19-1.57-.19h-1.92v7Z"/>
          <path d="m154.56,27.1h1.21v5.29c0,.92-.1,1.65-.31,2.19s-.58.98-1.13,1.32-1.26.51-2.14.51-1.56-.15-2.11-.44-.94-.72-1.17-1.28-.35-1.33-.35-2.3v-5.29h1.21v5.29c0,.8.07,1.38.22,1.76s.4.67.76.87.8.31,1.32.31c.89,0,1.53-.2,1.91-.61s.57-1.18.57-2.33v-5.29Z"/>
          <path d="m161.3,36.26v-9.16h1.21v8.08h4.51v1.08h-5.72Z"/>
          <path d="m167.46,36.26l3.52-9.16h1.31l3.75,9.16h-1.38l-1.07-2.77h-3.83l-1.01,2.77h-1.29Zm2.64-3.76h3.11l-.96-2.54c-.29-.77-.51-1.4-.65-1.9-.12.59-.28,1.17-.49,1.75l-1.01,2.69Z"/>
          <path d="m176.64,31.8c0-1.52.41-2.71,1.22-3.57s1.87-1.29,3.16-1.29c.85,0,1.61.2,2.29.61s1.2.97,1.55,1.69.53,1.54.53,2.46-.19,1.76-.56,2.49-.91,1.29-1.59,1.67-1.43.57-2.22.57c-.86,0-1.63-.21-2.31-.62s-1.19-.99-1.54-1.71-.52-1.48-.52-2.29Zm1.25.02c0,1.1.3,1.97.89,2.61s1.34.95,2.23.95,1.66-.32,2.25-.96.88-1.55.88-2.73c0-.75-.13-1.4-.38-1.95s-.62-.99-1.11-1.29-1.03-.46-1.63-.46c-.86,0-1.6.29-2.22.88s-.93,1.57-.93,2.95Z"/>
          <path d="m186.55,33.32l1.14-.1c.05.46.18.83.38,1.13s.51.53.92.71.89.27,1.41.27c.46,0,.87-.07,1.22-.21s.62-.33.79-.57.26-.5.26-.78-.08-.54-.25-.75-.44-.39-.82-.54c-.25-.1-.79-.24-1.63-.45s-1.43-.39-1.77-.57c-.44-.23-.76-.51-.98-.85s-.32-.72-.32-1.14c0-.46.13-.89.39-1.3s.65-.71,1.15-.92,1.06-.31,1.68-.31c.68,0,1.28.11,1.8.33s.92.54,1.2.97.43.91.45,1.44l-1.16.09c-.06-.58-.27-1.02-.63-1.31s-.89-.44-1.6-.44-1.27.13-1.6.4-.5.59-.5.97c0,.33.12.6.36.81.23.21.84.43,1.83.65s1.66.42,2.03.58c.53.25.93.56,1.18.93s.38.81.38,1.3-.14.95-.42,1.38-.68.77-1.2,1.01-1.11.36-1.77.36c-.83,0-1.52-.12-2.08-.36s-1-.61-1.32-1.09-.49-1.03-.5-1.65Z"/>
        </g>
      </g>
    </g>
  </g>
</svg>